<svg xmlns="http://www.w3.org/2000/svg" viewBox="0 0 109.38 109.38"><defs><style>.cls-1{fill:#fff;}</style></defs><g id="Слой_2" data-name="Слой 2"><g id="Слой_1-2" data-name="Слой 1"><path class="cls-1" d="M54.71,0H81.09a28.39,28.39,0,0,1,26.64,18.85,28.77,28.77,0,0,1,1.65,9.64q0,26.21,0,52.41a28.41,28.41,0,0,1-28.33,28.47H28.24A28.46,28.46,0,0,1,1.66,90.55,29,29,0,0,1,0,80.87Q0,54.62,0,28.38A28.39,28.39,0,0,1,28.37,0ZM9.38,54.73q0,13.11,0,26.2a19.59,19.59,0,0,0,.69,5.22,19,19,0,0,0,18.31,13.94q26.37,0,52.72,0A19.24,19.24,0,0,0,85,99.67a19,19,0,0,0,15.14-18.51q0-26.4,0-52.81a19.19,19.19,0,0,0-.48-4.2A19,19,0,0,0,81.14,9.38q-26.4,0-52.81,0a18.27,18.27,0,0,0-6.93,1.34,19,19,0,0,0-12,17.82Q9.36,41.63,9.38,54.73Z"/><path class="cls-1" d="M82,54.78A27.22,27.22,0,1,1,54.8,27.52,27.22,27.22,0,0,1,82,54.78Zm-46.13,0A18.92,18.92,0,1,0,54.76,35.83,18.94,18.94,0,0,0,35.83,54.74Z"/><path class="cls-1" d="M78.68,24.46a6.27,6.27,0,1,1,6.25,6.26A6.24,6.24,0,0,1,78.68,24.46Z"/></g></g></svg>