<svg xmlns="http://www.w3.org/2000/svg" viewBox="0 0 127.09 95.34"><defs><style>.cls-1{fill:#fff;}.cls-2{fill:none;}</style></defs><g id="Слой_2" data-name="Слой 2"><g id="Слой_1-2" data-name="Слой 1"><path class="cls-1" d="M63.58,0q25.49,0,51,0a12,12,0,0,1,10.29,5,11.87,11.87,0,0,1,2.26,7.31c0,6.94,0,13.88,0,20.81V80.76a33.24,33.24,0,0,1-.12,4.12,11.82,11.82,0,0,1-11.7,10.43c-8.67,0-17.35,0-26,0H42.33q-15,0-29.93,0a11.93,11.93,0,0,1-10.18-5,11.56,11.56,0,0,1-2.22-7Q0,70.39,0,57.52,0,34.92,0,12.3A11.78,11.78,0,0,1,6.25,1.47,10.81,10.81,0,0,1,11.74,0Q25,0,38.36,0Zm-45,29.7V90h89.91V29.74c-.28.17-.48.29-.67.42Q86,45.61,64.22,61.05a1,1,0,0,1-1.33,0Q42,46.24,21.07,31.44Zm.54-24.35-.06.13,4.4,3.06L63,36.11a.82.82,0,0,0,1.14,0c3.49-2.46,7-4.89,10.49-7.33l30.09-21,3.5-2.46ZM121.78,12a6.65,6.65,0,0,0-4.25-6.24,1.2,1.2,0,0,0-.91.18c-2.44,1.67-4.87,3.38-7.3,5.07Q86.76,26.77,64.21,42.51a1,1,0,0,1-1.33,0q-11-7.68-22-15.32Q25.78,16.65,10.67,6.06a1.31,1.31,0,0,0-1.53-.12,6.65,6.65,0,0,0-3.73,4.81A3.09,3.09,0,0,0,6,13.52a17.73,17.73,0,0,0,2.66,2.61c2.23,1.69,4.55,3.25,6.83,4.86q23.7,16.79,47.39,33.58a1,1,0,0,0,1.33,0q11.06-7.87,22.13-15.7,16.05-11.35,32.09-22.74a15.44,15.44,0,0,0,2.69-2.67A4.93,4.93,0,0,0,121.78,12Zm0,8.29c-.31.2-.5.31-.67.43-2.24,1.59-4.47,3.19-6.73,4.75a1.14,1.14,0,0,0-.55,1.08q0,31.3,0,62.62c0,.26,0,.52,0,.81h1a6.58,6.58,0,0,0,6.86-6.77c0-2.55,0-5.09,0-7.64V20.33ZM13.24,90V58.13q0-15.81,0-31.61a1.3,1.3,0,0,0-.42-.9c-2.3-1.67-4.63-3.3-6.95-4.94-.15-.1-.32-.17-.55-.3v7.89q0,27.48,0,55a7.46,7.46,0,0,0,.24,1.88C6.4,88.43,9.33,90.3,13.24,90Z"/><path class="cls-1" d="M18.6,29.71l2.47,1.73Q42,46.25,62.89,61.06a1,1,0,0,0,1.33,0Q86,45.59,107.84,30.16c.19-.13.39-.25.67-.42V90H18.6Z"/><path class="cls-1" d="M19.14,5.36h89.05l-3.5,2.46-30.09,21c-3.5,2.44-7,4.87-10.49,7.33a.82.82,0,0,1-1.14,0L23.48,8.55l-4.4-3.06Z"/><path class="cls-2" d="M121.78,12a4.93,4.93,0,0,1-.66,1.42,15.44,15.44,0,0,1-2.69,2.67q-16,11.42-32.09,22.74-11.07,7.85-22.13,15.7a1,1,0,0,1-1.33,0Q39.2,37.77,15.49,21c-2.28-1.61-4.6-3.17-6.83-4.86A17.73,17.73,0,0,1,6,13.52a3.09,3.09,0,0,1-.59-2.77A6.65,6.65,0,0,1,9.14,5.94a1.31,1.31,0,0,1,1.53.12q15.1,10.59,30.26,21.13,11,7.66,22,15.32a1,1,0,0,0,1.33,0q22.55-15.75,45.11-31.46c2.43-1.69,4.86-3.4,7.3-5.07a1.2,1.2,0,0,1,.91-.18A6.65,6.65,0,0,1,121.78,12Z"/><path class="cls-2" d="M121.79,20.33V75.61c0,2.55,0,5.09,0,7.64A6.58,6.58,0,0,1,114.93,90h-1c0-.29,0-.55,0-.81q0-31.3,0-62.62a1.14,1.14,0,0,1,.55-1.08c2.26-1.56,4.49-3.16,6.73-4.75C121.29,20.64,121.48,20.53,121.79,20.33Z"/><path class="cls-2" d="M13.24,90c-3.91.33-6.84-1.54-7.69-4.84a7.46,7.46,0,0,1-.24-1.88q0-27.49,0-55V20.38c.23.13.4.2.55.3,2.32,1.64,4.65,3.27,7,4.94a1.3,1.3,0,0,1,.42.9q0,15.81,0,31.61V90Z"/></g></g></svg>