<svg xmlns="http://www.w3.org/2000/svg" viewBox="0 0 122.17 96.12"><defs><style>.cls-1{fill:#fff;}</style></defs><g id="Слой_2" data-name="Слой 2"><g id="Слой_1-2" data-name="Слой 1"><path class="cls-1" d="M37.13,75.43a20.83,20.83,0,0,1-4.81-.64A30.22,30.22,0,0,1,25.17,72,40.15,40.15,0,0,1,13,61.89a23.84,23.84,0,0,1-4.15-7.13,3.73,3.73,0,0,1-.15-.47,22.4,22.4,0,0,0,10.94-.55A24.18,24.18,0,0,1,5.49,45.26,23.67,23.67,0,0,1,0,29.6a37.15,37.15,0,0,0,11.12,2.93c-.75-.58-1.44-1.08-2.09-1.62A24.06,24.06,0,0,1,.38,16.24a22.5,22.5,0,0,1,1.83-14C2.59,1.52,3.07.81,3.55,0l1,1.14A95.12,95.12,0,0,0,19.81,15.8,67.75,67.75,0,0,0,42.87,27.33a64.57,64.57,0,0,0,16.82,2.26l.38,0a20.48,20.48,0,0,1-.45-6.08,22.85,22.85,0,0,1,5.15-14,24.45,24.45,0,0,1,16-9.17,26,26,0,0,1,20.29,5.55c.73.57,1.4,1.22,2.12,1.81a.85.85,0,0,0,.57.15,46.75,46.75,0,0,0,15-5.56l.3-.16.16,0a26.86,26.86,0,0,1-11,13.15,48,48,0,0,0,14-3.74L121,13a49.55,49.55,0,0,1-11.26,11,.62.62,0,0,0-.26.59c0,2.34,0,4.69-.18,7A64.67,64.67,0,0,1,106.12,48,70.08,70.08,0,0,1,87.71,77.23,66.46,66.46,0,0,1,66.22,91,72.15,72.15,0,0,1,51.51,95a86.47,86.47,0,0,1-17,1c-3.42-.11-6.83-.31-10.23-.73a62.57,62.57,0,0,1-20-5.6C2.88,89,1.5,88.26.11,87.51l0-.11.45,0c2.81-.06,5.62,0,8.42-.19A42.3,42.3,0,0,0,29,81c2.68-1.66,5.23-3.53,7.83-5.31Z"/></g></g></svg>