<svg xmlns="http://www.w3.org/2000/svg" viewBox="0 0 111.99 61.9"><defs><style>.cls-1{fill:#fff;}</style></defs><g id="Слой_2" data-name="Слой 2"><g id="Слой_1-2" data-name="Слой 1"><path class="cls-1" d="M64.92,16h0c0-4.34,0-8.67,0-13A2.75,2.75,0,0,0,62.5.21,10.46,10.46,0,0,0,60.65,0C55.44,0,50.24,0,45,0a9.82,9.82,0,0,0-5.93,1.56A2.07,2.07,0,0,0,38,3.65c.18.92,1,.91,1.73,1.06a3.75,3.75,0,0,1,3.13,3,14.34,14.34,0,0,1,.38,3.19c0,5.86,0,11.72,0,17.58,0,1.42-.56,1.88-1.88,1.3a13.83,13.83,0,0,1-3.54-2.09c-3.76-3.28-6.38-7.47-8.94-11.67-2.16-3.55-4.21-7.17-6.29-10.76a3.47,3.47,0,0,0-2.58-2A29,29,0,0,0,16.8,2.9q-6.72,0-13.42,0C-.08,2.91-.79,4.1.82,7.18c1.51,2.92,3,5.84,4.61,8.72C11.34,26.71,17.75,37.19,25.7,46.65A57,57,0,0,0,38.34,58.31c3,1.93,6.23,3.43,9.86,3.52,4.61.12,9.22.06,13.83,0,2.57,0,3.62-1.15,3.63-3.75,0-2.77,0-5.55,0-8.32,0-2.5,0-2.5,2.4-2A7.55,7.55,0,0,1,69,48a22.49,22.49,0,0,1,8.7,5.7c2.18,2.13,4.27,4.35,6.44,6.49a5.24,5.24,0,0,0,3.71,1.65c7.11,0,14.22,0,21.32,0a2.63,2.63,0,0,0,2.71-1.39c.47-1.1-.25-1.91-.91-2.68l-.14-.16c-4.67-5.17-9.36-10.32-14-15.52-1.61-1.8-3.12-3.71-4.59-5.63a2.51,2.51,0,0,1,0-3.1q7.62-11.9,15.2-23.82a36,36,0,0,0,2.2-3.87c.67-1.42.18-2.26-1.32-2.58a8.28,8.28,0,0,0-1.64-.21c-5.72,0-11.44,0-17.16,0a3.83,3.83,0,0,0-3.7,2C84.77,6.8,83.7,8.7,82.67,10.62c-2.44,4.55-4.85,9.12-8.16,13.13-2.21,2.68-4.67,5-8.2,5.9-1.28.31-1.38.27-1.39-1Z"/><path class="cls-1" d="M64.92,16V28.61c0,1.31.11,1.35,1.39,1,3.53-.87,6-3.22,8.2-5.9,3.31-4,5.72-8.58,8.16-13.13,1-1.92,2.1-3.82,3.16-5.73a3.83,3.83,0,0,1,3.7-2c5.72,0,11.44,0,17.16,0a8.28,8.28,0,0,1,1.64.21c1.5.32,2,1.16,1.32,2.58a36,36,0,0,1-2.2,3.87q-7.58,11.93-15.2,23.82a2.51,2.51,0,0,0,0,3.1c1.47,1.92,3,3.83,4.59,5.63,4.64,5.2,9.33,10.35,14,15.52l.14.16c.66.77,1.38,1.58.91,2.68a2.63,2.63,0,0,1-2.71,1.39c-7.1,0-14.21,0-21.32,0a5.24,5.24,0,0,1-3.71-1.65c-2.17-2.14-4.26-4.36-6.44-6.49A22.49,22.49,0,0,0,69,48a7.55,7.55,0,0,0-.9-.25c-2.4-.49-2.4-.49-2.4,2,0,2.77,0,5.55,0,8.32,0,2.6-1.06,3.73-3.63,3.75-4.61,0-9.22.09-13.83,0-3.63-.09-6.84-1.59-9.86-3.52A57,57,0,0,1,25.7,46.65C17.75,37.19,11.34,26.71,5.43,15.9,3.85,13,2.33,10.1.82,7.18-.79,4.1-.08,2.91,3.38,2.9q6.71,0,13.42,0A29,29,0,0,1,20,3.18a3.47,3.47,0,0,1,2.58,2C24.67,8.8,26.72,12.42,28.88,16c2.56,4.2,5.18,8.39,8.94,11.67a13.83,13.83,0,0,0,3.54,2.09c1.32.58,1.88.12,1.88-1.3,0-5.86,0-11.72,0-17.58a14.34,14.34,0,0,0-.38-3.19,3.75,3.75,0,0,0-3.13-2.95C39,4.56,38.17,4.57,38,3.65a2.07,2.07,0,0,1,1.12-2.07A9.82,9.82,0,0,1,45,0c5.2,0,10.4,0,15.61,0A10.46,10.46,0,0,1,62.5.21,2.75,2.75,0,0,1,64.93,3c0,4.33,0,8.66,0,13Z"/></g></g></svg>